<svg xmlns="http://www.w3.org/2000/svg" viewBox="0 0 58.47 58.47"><defs><style>.cls-1{fill:#f9a323;}.cls-2{fill:#7bc143;}.cls-3{fill:#e50a0a;}</style></defs><g id="Layer_2" data-name="Layer 2"><g id="Layer_1-2" data-name="Layer 1"><path class="cls-1" d="M39.78,30.34l-6,7.18L29.17,24.81,24.55,37.52l-6-7.18-1,5.82H14.17a16.56,16.56,0,0,0,30.13,0H40.75Z"/><path class="cls-2" d="M28.93,12.64A16.92,16.92,0,0,0,13.76,23.49a15.48,15.48,0,0,0-.58,9.87h2l1.58-9.5L23.58,32l5.59-15.38L34.76,32l6.78-8.14,1.58,9.5H45.3A16.53,16.53,0,0,0,28.93,12.64Z"/><path class="cls-3" d="M55.2,23.3l-3-1.06a3.14,3.14,0,0,1-1.79-4.31l1.36-2.86A4.84,4.84,0,0,0,51,9.74a30.65,30.65,0,0,0-2.28-2.28,4.86,4.86,0,0,0-5.33-.78L40.54,8a3.14,3.14,0,0,1-4.31-1.79l-1.06-3A4.84,4.84,0,0,0,30.92.05c-.56,0-1.12,0-1.68,0s-1.13,0-1.68.05A4.84,4.84,0,0,0,23.3,3.27l-1.06,3A3.14,3.14,0,0,1,17.93,8L15.07,6.68a4.86,4.86,0,0,0-5.33.78A30.65,30.65,0,0,0,7.46,9.74a4.86,4.86,0,0,0-.78,5.33L8,17.93a3.14,3.14,0,0,1-1.79,4.31l-3,1.06A4.84,4.84,0,0,0,.05,27.56c0,.55,0,1.11,0,1.68s0,1.12.05,1.68a4.84,4.84,0,0,0,3.22,4.25l3,1.06A3.14,3.14,0,0,1,8,40.54L6.68,43.4a4.86,4.86,0,0,0,.78,5.33A30.65,30.65,0,0,0,9.74,51a4.86,4.86,0,0,0,5.33.79l2.86-1.37a3.14,3.14,0,0,1,4.31,1.79l1.06,3a4.82,4.82,0,0,0,4.26,3.22c.55,0,1.11,0,1.68,0s1.12,0,1.68,0a4.82,4.82,0,0,0,4.25-3.22l1.06-3a3.14,3.14,0,0,1,4.31-1.79l2.86,1.36A4.84,4.84,0,0,0,48.73,51,30.65,30.65,0,0,0,51,48.73a4.85,4.85,0,0,0,.79-5.32l-1.37-2.87a3.14,3.14,0,0,1,1.79-4.31l3-1.06a4.82,4.82,0,0,0,3.22-4.25c0-.56,0-1.12,0-1.68s0-1.13,0-1.68A4.82,4.82,0,0,0,55.2,23.3Zm-24,25.23a19.4,19.4,0,1,1,17.3-17.31A19.41,19.41,0,0,1,31.23,48.53Z"/></g></g></svg>