<svg xmlns="http://www.w3.org/2000/svg" viewBox="0 0 314.11 80"><defs><style>.cls-1{fill:none;}.cls-2{fill:#515151;}</style></defs><g id="Layer_2" data-name="Layer 2"><g id="Layer_1-2" data-name="Layer 1"><rect class="cls-1" width="314.11" height="80"/><path class="cls-2" d="M50,40.1l-6,7.19L39.35,34.57,34.72,47.29l-6-7.19-1,5.82H24.35a16.56,16.56,0,0,0,30.13,0H50.93Z"/><path class="cls-2" d="M39.11,22.4A16.94,16.94,0,0,0,23.94,33.25a15.51,15.51,0,0,0-.58,9.88h2L27,33.62l6.78,8.14,5.59-15.38,5.59,15.38,6.78-8.14,1.58,9.51h2.17A16.54,16.54,0,0,0,39.11,22.4Z"/><path class="cls-2" d="M65.38,33.07,62.4,32a3.15,3.15,0,0,1-1.79-4.32L62,24.83a4.86,4.86,0,0,0-.78-5.33,30.65,30.65,0,0,0-2.28-2.28,4.88,4.88,0,0,0-5.33-.78L50.72,17.8A3.14,3.14,0,0,1,46.41,16l-1.06-3a4.85,4.85,0,0,0-4.26-3.23c-.55,0-1.11-.05-1.68-.05s-1.12,0-1.67.05A4.85,4.85,0,0,0,33.48,13l-1.06,3a3.14,3.14,0,0,1-4.31,1.78l-2.86-1.36a4.88,4.88,0,0,0-5.33.78,30.65,30.65,0,0,0-2.28,2.28,4.84,4.84,0,0,0-.78,5.33l1.36,2.86A3.15,3.15,0,0,1,16.43,32l-3,1.06a4.82,4.82,0,0,0-3.22,4.25c0,.56-.05,1.12-.05,1.68s0,1.12.05,1.68a4.82,4.82,0,0,0,3.22,4.25l3,1.06a3.15,3.15,0,0,1,1.79,4.32l-1.36,2.86a4.86,4.86,0,0,0,.78,5.33,30.65,30.65,0,0,0,2.28,2.28,4.86,4.86,0,0,0,5.32.78l2.87-1.36A3.14,3.14,0,0,1,32.42,62l1.06,3a4.85,4.85,0,0,0,4.26,3.23c.55,0,1.11,0,1.67,0s1.13,0,1.68,0A4.85,4.85,0,0,0,45.35,65l1.06-3a3.14,3.14,0,0,1,4.31-1.78l2.86,1.36a4.88,4.88,0,0,0,5.33-.78,30.65,30.65,0,0,0,2.28-2.28A4.84,4.84,0,0,0,62,53.17l-1.36-2.86A3.15,3.15,0,0,1,62.4,46l3-1.06a4.82,4.82,0,0,0,3.22-4.25c0-.56.05-1.12.05-1.68s0-1.12-.05-1.68A4.82,4.82,0,0,0,65.38,33.07Zm-24,25.22A19.4,19.4,0,1,1,58.71,41,19.41,19.41,0,0,1,41.4,58.29Z"/><path class="cls-2" d="M83.89,37.05c3,3.63,9.58,3.8,9.79.59.09-1.69-2.66-2.66-5.1-3-4.82-.76-9.21-3.8-9.21-9.5,0-5.86,5.32-8.95,10.81-8.95A12.32,12.32,0,0,1,100.4,21l-4.94,3.8c-3.13-3.33-8.49-3.2-8.61.26.08,1.43,1.64,2.28,4,2.78,5.32,1,10.64,2.83,10.3,10.18-.25,5.78-6.33,9-11.82,9a13.11,13.11,0,0,1-10.17-5.41Z"/><path class="cls-2" d="M111.46,46.51H103.9V16.62h7.56Z"/><path class="cls-2" d="M115.73,16.62h7.55l6.29,14.6,6.33-14.6h7.56V46.51h-7.6l0-8.62.47-6-.25-.05-3.93,10.26H127l-4-10.26-.21.05.5,6v8.62h-7.55Z"/><path class="cls-2" d="M147.73,16.62h12c7.3,0,10.93,5.27,10.93,10.55s-3.67,10.6-10.89,10.6h-4.43v8.74h-7.56Zm12,14.43c4.56.05,4.56-7.43,0-7.38h-4.39v7.38Z"/><path class="cls-2" d="M181,28.35h12.12V34.9H181v4.47h13.17v7.14H173.36V16.62h20.81v7.09H181Z"/><path class="cls-2" d="M197.72,16.62h7.6V39h12.16v7.48H197.72Z"/><path class="cls-2" d="M221.58,46.51V16.62h1V45.45h15v1.06Z"/><path class="cls-2" d="M239.9,46.51h-1.14l11.06-29.89h1.69l11.06,29.89h-1.14l-4-10.69h-13.6Zm10.69-28.88-6.34,17.14h12.84l-6.34-17.14Z"/><path class="cls-2" d="M282.72,31.14c3.29,1.39,4.3,4.73,4.26,7.39-.13,6.16-4.1,8-9.29,8H266.8V16.62h10.93c4.39,0,7.81,2.53,7.81,7.26a6.67,6.67,0,0,1-3,6l-1.31.72Zm-5-1c3.93,0,6.8-1.94,6.8-6.25s-3-6.33-6.8-6.33h-9.87V30.17Zm0,15.32c4.77.09,8.19-1.81,8.19-7s-3.16-7.34-8.19-7.3h-9.87V45.49Z"/><path class="cls-2" d="M86.13,58.44A2.55,2.55,0,0,1,87.58,61c0,2.09-1.39,2.71-3.15,2.71H80.72V53.5h3.72A2.41,2.41,0,0,1,87.09,56a2.26,2.26,0,0,1-1,2.05l-.45.25Zm-1.69-.33A2,2,0,0,0,86.75,56a2.09,2.09,0,0,0-2.31-2.15H81.08v4.28Zm0,5.21c1.62,0,2.78-.62,2.78-2.38s-1.07-2.5-2.78-2.49H81.08v4.87Z"/><path class="cls-2" d="M95.55,58.29c1.67.33,3.48,1,3.33,3-.11,1.64-1.75,2.52-3.41,2.52a4,4,0,0,1-3.35-1.64l.33-.14a3.72,3.72,0,0,0,3,1.43c1.4,0,2.8-.67,3-2.17.13-1.8-1.45-2.31-3-2.65s-3.35-.89-3.26-2.81c.06-1.68,1.65-2.47,3.27-2.47a3.46,3.46,0,0,1,3.16,1.56l-.33.13a3.2,3.2,0,0,0-2.83-1.35c-1.43,0-2.81.6-2.91,2.13S93.92,58,95.55,58.29Z"/><path class="cls-2" d="M103.91,63.66V53.5h3.59a3,3,0,0,1,3.12,3.09,3,3,0,0,1-3.1,3h-3.25v4Zm3.59-4.4a2.61,2.61,0,0,0,2.76-2.69,2.67,2.67,0,0,0-2.76-2.74h-3.23v5.43Z"/><path class="cls-2" d="M115.57,53.5h3.75V61c0,1.86-1.71,2.83-3.42,2.83a3.21,3.21,0,0,1-3.21-2.06l.36-.11a2.91,2.91,0,0,0,2.87,1.82c1.49,0,3-.8,3-2.48V53.83h-3.39Z"/><path class="cls-2" d="M125.22,63.66h-.36V53.5h.36Z"/><path class="cls-2" d="M142.72,58.44A2.55,2.55,0,0,1,144.17,61c0,2.09-1.39,2.71-3.15,2.71h-3.71V53.5H141A2.41,2.41,0,0,1,143.69,56a2.27,2.27,0,0,1-1,2.05l-.45.25ZM141,58.11A2,2,0,0,0,143.34,56,2.09,2.09,0,0,0,141,53.83h-3.36v4.28Zm0,5.21c1.62,0,2.78-.62,2.78-2.38s-1.07-2.5-2.78-2.49h-3.36v4.87Z"/><path class="cls-2" d="M148.47,63.66h-.39l3.76-10.16h.58l3.76,10.16h-.39L154.44,60h-4.62Zm3.63-9.81L150,59.67h4.36l-2.15-5.82Z"/><path class="cls-2" d="M167.32,63.32V53.5h.36V63.66h-.62L161.11,54l0,9.7h-.37V53.5h.56Z"/><path class="cls-2" d="M176.73,53.5c1.78,0,3.27.8,3.27,2.73V61c0,1.91-1.49,2.71-3.27,2.71H173.3V53.5Zm0,9.8c1.61,0,2.91-.67,2.91-2.35V56.23c0-1.7-1.3-2.37-2.91-2.37h-3.07V63.3Z"/><path class="cls-2" d="M184.64,63.66h-.39L188,53.5h.57l3.76,10.16H192L190.61,60H186Zm3.63-9.81-2.15,5.82h4.36l-2.15-5.82Z"/><path class="cls-2" d="M203,63.66l-3.41-4.53h-2.31v4.53h-.35V53.5h3.59c1.76,0,3.11.69,3.16,2.76s-1.3,2.87-3.15,2.87H200l3.43,4.53Zm-2.47-4.85c1.85,0,2.8-.75,2.8-2.54s-1.17-2.47-2.8-2.44h-3.25v5Z"/><path class="cls-2" d="M208.59,63.66V53.5H209v9.8H214v.36Z"/><path class="cls-2" d="M217.93,63.66h-.39L221.3,53.5h.57l3.76,10.16h-.38L223.9,60h-4.62Zm3.63-9.81-2.15,5.82h4.36l-2.15-5.82Z"/><path class="cls-2" d="M230.66,53.86h-.13v9.79h-.35V53.5h.76l3.63,8.22,3.61-8.22h.76V63.66h-.35v-9.9h-.13l-3.65,8.29h-.49Z"/><path class="cls-2" d="M244.56,63.66V53.5h3.59a3,3,0,0,1,3.12,3.09,3,3,0,0,1-3.1,3h-3.25v4Zm3.59-4.4a2.61,2.61,0,0,0,2.76-2.69,2.67,2.67,0,0,0-2.76-2.74h-3.23v5.43Z"/><path class="cls-2" d="M256.44,60.88c0,1.72,1.59,2.58,3.2,2.58s3.21-.86,3.21-2.58V53.5h.36v7.38c0,1.93-1.79,2.93-3.57,2.93s-3.56-1-3.56-2.93V53.5h.36Z"/><path class="cls-2" d="M275.36,63.32V53.5h.36V63.66h-.62l-6-9.7,0,9.7h-.37V53.5h.56Z"/><path class="cls-2" d="M281.12,56.2c0-1.87,1.78-2.84,3.56-2.84a3.66,3.66,0,0,1,3.15,1.48l-.33.21a3.15,3.15,0,0,0-2.85-1.33c-1.59,0-3.17.81-3.17,2.48v4.72c0,1.69,1.59,2.54,3.2,2.54s3.22-.85,3.22-2.54V59h-3.12v-.35h3.48v2.27c0,1.92-1.8,2.89-3.58,2.89s-3.56-1-3.56-2.89Z"/></g></g></svg>