<svg xmlns="http://www.w3.org/2000/svg" viewBox="0 0 58.47 58.47"><defs><style>.cls-1,.cls-4{fill:none;}.cls-2{fill:#005696;}.cls-3{fill:#1b88e9;}.cls-4{stroke:#fff;stroke-miterlimit:10;}.cls-5{fill:#474747;}</style></defs><g id="Layer_2" data-name="Layer 2"><g id="Layer_1-2" data-name="Layer 1"><circle class="cls-1" cx="29.24" cy="29.24" r="18.45"/><path class="cls-2" d="M45.67,28.9c-1.88,9.43-7.51,16.77-16.77,16.77S14.16,39.58,14.16,30.31s9.3.5,12.79-.59C35.59,30.22,47.55,19.48,45.67,28.9Z"/><path class="cls-3" d="M46,29.24A16.78,16.78,0,0,1,30.06,46,17,17,0,0,1,12.52,30.36c-1-11.12,14.31,1.35,21.59,1.14C43.37,31.24,46,20,46,29.24Z"/><path class="cls-4" d="M29.24,9.84a19.4,19.4,0,1,0,19.39,19.4A19.42,19.42,0,0,0,29.24,9.84Z"/><path class="cls-5" d="M54.07,22.9h0a4.92,4.92,0,0,1-2.8-6.74h0A6.64,6.64,0,0,0,50,8.65l-.17-.16A6.62,6.62,0,0,0,42.31,7.2h0a4.92,4.92,0,0,1-6.74-2.79h0A6.56,6.56,0,0,0,29.48,0H29A6.56,6.56,0,0,0,22.9,4.41h0A4.92,4.92,0,0,1,16.16,7.2h0A6.62,6.62,0,0,0,8.65,8.49l-.16.16A6.62,6.62,0,0,0,7.2,16.16h0A4.92,4.92,0,0,1,4.41,22.9h0A6.56,6.56,0,0,0,0,29v.49a6.56,6.56,0,0,0,4.41,6.09h0A4.92,4.92,0,0,1,7.2,42.31h0a6.62,6.62,0,0,0,1.29,7.51l.16.17a6.64,6.64,0,0,0,7.51,1.28h0a4.92,4.92,0,0,1,6.74,2.8h0A6.56,6.56,0,0,0,29,58.47h.49a6.56,6.56,0,0,0,6.09-4.4h0a4.92,4.92,0,0,1,6.74-2.8h0A6.63,6.63,0,0,0,49.82,50l.17-.17a6.63,6.63,0,0,0,1.28-7.51h0a4.92,4.92,0,0,1,2.8-6.74h0a6.56,6.56,0,0,0,4.4-6.09V29A6.56,6.56,0,0,0,54.07,22.9ZM31.23,48.53a19.4,19.4,0,1,1,17.3-17.31A19.41,19.41,0,0,1,31.23,48.53Z"/></g></g></svg>