<svg xmlns="http://www.w3.org/2000/svg" viewBox="0 0 318.84 80"><defs><style>.cls-1{fill:#474747;}.cls-2,.cls-5{fill:none;}.cls-3{fill:#005696;}.cls-4{fill:#1b88e9;}.cls-5{stroke:#fff;stroke-miterlimit:10;}</style></defs><g id="Layer_2" data-name="Layer 2"><g id="Layer_1-2" data-name="Layer 1"><path class="cls-1" d="M79.89,46.16c3.36,4.08,10.76,4.27,11,.67.1-1.9-3-3-5.73-3.37-5.41-.85-10.34-4.27-10.34-10.67,0-6.58,6-10,12.14-10A13.77,13.77,0,0,1,98.42,28.1l-5.54,4.27c-3.51-3.75-9.53-3.6-9.68.28.1,1.61,1.85,2.56,4.46,3.13,6,1.09,12,3.18,11.57,11.43-.29,6.49-7.11,10-13.28,10a14.69,14.69,0,0,1-11.42-6.06Z"/><path class="cls-1" d="M111.08,56.78h-8.49V23.22h8.49Z"/><path class="cls-1" d="M116.1,23.22h8.49l7.06,16.4,7.11-16.4h8.48V56.78h-8.53l0-9.67.52-6.78-.28,0L134.59,51.8h-5.83l-4.51-11.52-.23,0,.57,6.78v9.67H116.1Z"/><path class="cls-1" d="M152.27,23.22h13.41c8.2,0,12.28,5.92,12.28,11.85S173.84,47,165.73,47h-5v9.81h-8.48Zm13.41,16.21c5.12,0,5.12-8.34,0-8.29h-4.93v8.29Z"/><path class="cls-1" d="M189.86,36.4h13.6v7.34h-13.6v5h14.79v8H181.28V23.22h23.37v8H189.86Z"/><path class="cls-1" d="M208.86,23.22h8.54V48.39h13.65v8.39H208.86Z"/><path class="cls-1" d="M235.88,56.78V23.22h1.19V55.6h16.78v1.18Z"/><path class="cls-1" d="M256.69,56.78h-1.28l12.42-33.56h1.9l12.42,33.56h-1.28l-4.46-12H261.15Zm12-32.42L261.57,43.6H276l-7.11-19.24Z"/><path class="cls-1" d="M305,39.53c3.7,1.56,4.84,5.31,4.79,8.29-.14,6.92-4.6,9-10.43,9H287.12V23.22H299.4c4.93,0,8.77,2.84,8.77,8.15,0,2.85-1,5.41-3.37,6.78l-1.47.81Zm-5.59-1.09c4.41,0,7.63-2.18,7.63-7s-3.36-7.11-7.63-7.11H288.31V38.44Zm0,17.2c5.36.1,9.2-2,9.2-7.87s-3.56-8.24-9.2-8.2H288.31V55.64Z"/><rect class="cls-2" width="318.84" height="80"/><circle class="cls-2" cx="38.45" cy="40" r="18.45"/><path class="cls-3" d="M54.88,39.66C53,49.09,47.38,56.43,38.11,56.43S23.37,50.34,23.37,41.08s9.3.5,12.8-.59C44.8,41,56.76,30.24,54.88,39.66Z"/><path class="cls-4" d="M55.22,40A16.77,16.77,0,0,1,39.27,56.75,17,17,0,0,1,21.74,41.12C20.71,30,36,42.47,43.33,42.27,52.58,42,55.22,30.74,55.22,40Z"/><path class="cls-5" d="M38.45,20.61A19.39,19.39,0,1,0,57.84,40,19.42,19.42,0,0,0,38.45,20.61Z"/><path class="cls-1" d="M63.28,33.66h0a4.91,4.91,0,0,1-2.79-6.74h0a6.61,6.61,0,0,0-1.29-7.5c-.06-.06-.11-.12-.17-.17A6.61,6.61,0,0,0,51.53,18h0a4.91,4.91,0,0,1-6.74-2.79h0a6.59,6.59,0,0,0-6.1-4.41H38.2a6.59,6.59,0,0,0-6.09,4.41h0A4.91,4.91,0,0,1,25.37,18h0a6.62,6.62,0,0,0-7.51,1.29l-.16.17a6.61,6.61,0,0,0-1.29,7.5h0a4.91,4.91,0,0,1-2.79,6.74h0a6.59,6.59,0,0,0-4.41,6.1v.48a6.59,6.59,0,0,0,4.41,6.1h0a4.91,4.91,0,0,1,2.79,6.74h0a6.61,6.61,0,0,0,1.29,7.5l.16.17A6.62,6.62,0,0,0,25.37,62h0a4.91,4.91,0,0,1,6.74,2.79h0a6.59,6.59,0,0,0,6.09,4.41h.49a6.59,6.59,0,0,0,6.1-4.41h0A4.91,4.91,0,0,1,51.53,62h0A6.61,6.61,0,0,0,59,60.75c.06,0,.11-.11.17-.17a6.61,6.61,0,0,0,1.29-7.5h0a4.91,4.91,0,0,1,2.79-6.74h0a6.57,6.57,0,0,0,4.4-6.09,2.18,2.18,0,0,0,0-.25,1.93,1.93,0,0,0,0-.24A6.57,6.57,0,0,0,63.28,33.66ZM40.44,59.29A19.4,19.4,0,1,1,57.75,42,19.42,19.42,0,0,1,40.44,59.29Z"/></g></g></svg>