<svg xmlns="http://www.w3.org/2000/svg" viewBox="0 0 227.77 80"><defs><style>.cls-1,.cls-4{fill:none;}.cls-2{fill:#005696;}.cls-3{fill:#1b88e9;}.cls-4{stroke:#fff;stroke-miterlimit:10;}.cls-5{fill:#474747;}.cls-6{fill:#424242;}</style></defs><g id="Layer_2" data-name="Layer 2"><g id="Layer_1-2" data-name="Layer 1"><rect class="cls-1" width="227.77" height="80"/><circle class="cls-1" cx="38.45" cy="40" r="18.45"/><path class="cls-2" d="M54.88,39.66C53,49.09,47.38,56.43,38.11,56.43S23.37,50.34,23.37,41.08s9.3.5,12.8-.59C44.8,41,56.76,30.24,54.88,39.66Z"/><path class="cls-3" d="M55.22,40A16.77,16.77,0,0,1,39.27,56.75,17,17,0,0,1,21.74,41.12C20.71,30,36,42.47,43.33,42.27,52.58,42,55.22,30.74,55.22,40Z"/><path class="cls-4" d="M38.45,20.61A19.39,19.39,0,1,0,57.84,40,19.42,19.42,0,0,0,38.45,20.61Z"/><path class="cls-5" d="M63.28,33.66h0a4.91,4.91,0,0,1-2.79-6.74h0a6.61,6.61,0,0,0-1.29-7.5c-.06-.06-.11-.12-.17-.17A6.61,6.61,0,0,0,51.53,18h0a4.91,4.91,0,0,1-6.74-2.79h0a6.59,6.59,0,0,0-6.1-4.41H38.2a6.59,6.59,0,0,0-6.09,4.41h0A4.91,4.91,0,0,1,25.37,18h0a6.62,6.62,0,0,0-7.51,1.29l-.16.17a6.61,6.61,0,0,0-1.29,7.5h0a4.91,4.91,0,0,1-2.79,6.74h0a6.59,6.59,0,0,0-4.41,6.1v.48a6.59,6.59,0,0,0,4.41,6.1h0a4.91,4.91,0,0,1,2.79,6.74h0a6.61,6.61,0,0,0,1.29,7.5l.16.17A6.62,6.62,0,0,0,25.37,62h0a4.91,4.91,0,0,1,6.74,2.79h0a6.59,6.59,0,0,0,6.09,4.41h.49a6.59,6.59,0,0,0,6.1-4.41h0A4.91,4.91,0,0,1,51.53,62h0A6.61,6.61,0,0,0,59,60.75c.06,0,.11-.11.17-.17a6.61,6.61,0,0,0,1.29-7.5h0a4.91,4.91,0,0,1,2.79-6.74h0a6.57,6.57,0,0,0,4.4-6.09,2.18,2.18,0,0,0,0-.25,1.93,1.93,0,0,0,0-.24A6.57,6.57,0,0,0,63.28,33.66ZM40.44,59.29A19.4,19.4,0,1,1,57.75,42,19.42,19.42,0,0,1,40.44,59.29Z"/><path class="cls-5" d="M79.35,49.8c3,3.66,9.67,3.83,9.88.59.09-1.7-2.68-2.68-5.15-3-4.86-.77-9.29-3.84-9.29-9.59,0-5.92,5.37-9,10.9-9A12.4,12.4,0,0,1,96,33.56L91,37.4c-3.15-3.37-8.56-3.24-8.69.25.08,1.45,1.66,2.3,4,2.81,5.37,1,10.74,2.86,10.4,10.27-.25,5.84-6.39,9-11.93,9a13.2,13.2,0,0,1-10.27-5.46Z"/><path class="cls-5" d="M107.38,59.34H99.76V29.17h7.62Z"/><path class="cls-5" d="M111.9,29.17h7.63l6.35,14.75,6.39-14.75h7.63V59.34h-7.67l0-8.69.47-6.09-.26-.05-4,10.36h-5.24l-4-10.36-.21.05.51,6.09v8.69H111.9Z"/><path class="cls-5" d="M144.41,29.17h12.06c7.37,0,11,5.33,11,10.65s-3.71,10.7-11,10.7H152v8.82h-7.63Zm12.06,14.58c4.61,0,4.61-7.5,0-7.46H152v7.46Z"/><path class="cls-5" d="M178.2,41h12.23v6.6H178.2v4.52h13.3v7.2h-21V29.17h21v7.16H178.2Z"/><path class="cls-5" d="M195.29,29.17H203V51.8h12.27v7.54H195.29Z"/><path class="cls-6" d="M77.77,15.62a11.55,11.55,0,0,1,2-.16,3.31,3.31,0,0,1,2.26.67,2.16,2.16,0,0,1,.71,1.69,2.4,2.4,0,0,1-.62,1.73,3.37,3.37,0,0,1-2.47.89,3.56,3.56,0,0,1-.84-.07V23.6h-1Zm1,3.89a3,3,0,0,0,.86.09c1.26,0,2-.61,2-1.73S81,16.29,79.8,16.29a4.26,4.26,0,0,0-1,.08Z"/><path class="cls-6" d="M91.06,19.48c0,2.78-1.69,4.26-3.75,4.26s-3.63-1.66-3.63-4.1,1.59-4.25,3.75-4.25S91.06,17.08,91.06,19.48Zm-6.27.13c0,1.73.94,3.28,2.58,3.28S90,21.36,90,19.53c0-1.61-.84-3.29-2.58-3.29S84.79,17.84,84.79,19.61Z"/><path class="cls-6" d="M93.74,23.6l-2-8.08H92.8l1,4.09c.24,1,.45,2,.6,2.8h0c.13-.81.38-1.77.66-2.81l1.08-4.08h1.09l1,4.1c.23,1,.45,1.92.57,2.77h0c.17-.88.4-1.78.65-2.79l1.07-4.08h1.06L99.27,23.6H98.18l-1-4.21a25.48,25.48,0,0,1-.53-2.63h0A24.06,24.06,0,0,1,96,19.39L94.84,23.6Z"/><path class="cls-6" d="M106.76,19.81h-3.14v2.92h3.5v.87h-4.54V15.52h4.36v.88h-3.32V19h3.14Z"/><path class="cls-6" d="M108.48,15.63a10.66,10.66,0,0,1,2-.17,3.32,3.32,0,0,1,2.34.66,2,2,0,0,1,.64,1.54,2.12,2.12,0,0,1-1.53,2.06v0a2,2,0,0,1,1.19,1.63,13,13,0,0,0,.63,2.21h-1.08a9,9,0,0,1-.54-1.93c-.24-1.11-.68-1.53-1.62-1.57h-1v3.5h-1Zm1,3.68h1.07c1.12,0,1.82-.61,1.82-1.53s-.75-1.5-1.86-1.52a4.15,4.15,0,0,0-1,.1Z"/><path class="cls-6" d="M119.12,19.81H116v2.92h3.5v.87h-4.54V15.52h4.36v.88H116V19h3.14Z"/><path class="cls-6" d="M120.84,15.63a14.44,14.44,0,0,1,2.22-.17,4.6,4.6,0,0,1,3.27,1,3.71,3.71,0,0,1,1.14,2.9,4.28,4.28,0,0,1-1.16,3.14,5,5,0,0,1-3.57,1.17,16.77,16.77,0,0,1-1.9-.1Zm1,7.15a6.45,6.45,0,0,0,1.06.06,3.11,3.11,0,0,0,3.44-3.43c0-1.91-1.07-3.12-3.27-3.12a6,6,0,0,0-1.23.11Z"/><path class="cls-6" d="M131.38,15.63a9.65,9.65,0,0,1,1.9-.17,3.31,3.31,0,0,1,2.22.59,1.69,1.69,0,0,1,.67,1.43,1.91,1.91,0,0,1-1.36,1.77v0a2.1,2.1,0,0,1,1.66,2,2.15,2.15,0,0,1-.68,1.62,4,4,0,0,1-2.8.76,11.58,11.58,0,0,1-1.61-.1Zm1,3.31h1c1.1,0,1.75-.58,1.75-1.36,0-.94-.72-1.32-1.78-1.32a4,4,0,0,0-.92.08Zm0,3.87a5,5,0,0,0,.87.05c1.08,0,2.08-.39,2.08-1.57s-1-1.56-2.09-1.56h-.86Z"/><path class="cls-6" d="M139.5,23.6V20.18l-2.56-4.66h1.19l1.14,2.23c.31.61.55,1.11.8,1.67h0c.23-.53.5-1.06.81-1.67l1.17-2.23h1.18l-2.71,4.64V23.6Z"/></g></g></svg>