<svg xmlns="http://www.w3.org/2000/svg" viewBox="0 0 225.45 48.96"><defs><style>.cls-1{fill:#474747;}.cls-2{fill:#297589;}.cls-3{fill:#2e8ba0;}</style></defs><g id="Layer_2" data-name="Layer 2"><g id="Layer_1-2" data-name="Layer 1"><path class="cls-1" d="M46.16,20.87l-3.54-1.26a3.64,3.64,0,0,1-2.07-5l1.62-3.4A3.62,3.62,0,0,0,37.34,6.4L33.94,8A3.64,3.64,0,0,1,29,6L27.7,2.41a3.63,3.63,0,0,0-6.83,0L19.61,6a3.64,3.64,0,0,1-5,2.06L11.23,6.4A3.63,3.63,0,0,0,6.4,11.23L8,14.63a3.64,3.64,0,0,1-2.06,5L2.41,20.87a3.63,3.63,0,0,0,0,6.83L6,29a3.64,3.64,0,0,1,2.06,5L6.4,37.34a3.62,3.62,0,0,0,4.83,4.83l3.4-1.62a3.64,3.64,0,0,1,5,2.07l1.26,3.54a3.62,3.62,0,0,0,6.83,0L29,42.62a3.64,3.64,0,0,1,5-2.07l3.4,1.62a3.62,3.62,0,0,0,4.83-4.83l-1.62-3.4a3.64,3.64,0,0,1,2.07-5l3.54-1.26A3.62,3.62,0,0,0,46.16,20.87ZM24.29,38.6A14.32,14.32,0,1,1,38.6,24.29,14.33,14.33,0,0,1,24.29,38.6Z"/><path class="cls-2" d="M36.42,24C35,31,30.88,36.42,24,36.42s-10.88-4.5-10.88-11.34,6.86.37,9.44-.43C29,25,37.8,17.08,36.42,24Z"/><path class="cls-3" d="M36.66,24.29A12.37,12.37,0,0,1,24.89,36.65,12.55,12.55,0,0,1,12,25.12c-.76-8.21,10.56,1,15.94.84C34.72,25.77,36.66,17.45,36.66,24.29Z"/><path class="cls-1" d="M57.77,28.78c2.46,3,7.85,3.11,8,.49.07-1.39-2.18-2.18-4.18-2.46-3.94-.62-7.54-3.11-7.54-7.78s4.36-7.33,8.85-7.33a10,10,0,0,1,8.37,3.91l-4.05,3.11c-2.56-2.73-6.95-2.63-7,.21.07,1.17,1.35,1.86,3.25,2.28,4.36.79,8.71,2.32,8.44,8.33-.21,4.74-5.19,7.33-9.68,7.33a10.74,10.74,0,0,1-8.34-4.42Z"/><path class="cls-1" d="M80.52,36.53H74.33V12.05h6.19Z"/><path class="cls-1" d="M84.18,12.05h6.19l5.15,12,5.19-12h6.19V36.53h-6.22l0-7.06.38-4.94-.21,0L97.67,32.9H93.41l-3.28-8.41-.17,0,.41,4.94v7.06H84.18Z"/><path class="cls-1" d="M110.56,12.05h9.79c6,0,9,4.32,9,8.64a8.46,8.46,0,0,1-8.92,8.68h-3.63v7.16h-6.19Zm9.79,11.82c3.73,0,3.73-6.08,0-6.05h-3.6v6.05Z"/><path class="cls-1" d="M138,21.66h9.92V27H138v3.66h10.79v5.85H131.72V12.05h17.05v5.81H138Z"/><path class="cls-1" d="M151.84,12.05h6.23V30.41h10v6.12H151.84Z"/><path class="cls-1" d="M171.55,36.53V12.05h.86V35.66h12.24v.87Z"/><path class="cls-1" d="M186.73,36.53h-.94l9.06-24.48h1.38l9.06,24.48h-.93l-3.25-8.75H190Zm8.74-23.65-5.18,14H200.8l-5.19-14Z"/><path class="cls-1" d="M222,23.94a6.18,6.18,0,0,1,3.49,6c-.1,5.05-3.35,6.54-7.61,6.54h-8.92V12.05h9c3.59,0,6.39,2.07,6.39,5.94a5.47,5.47,0,0,1-2.45,5l-1.07.59Zm-4.08-.79c3.21,0,5.56-1.59,5.56-5.12s-2.45-5.19-5.56-5.19h-8.09V23.15Zm0,12.55c3.9.07,6.71-1.49,6.71-5.74s-2.6-6-6.71-6h-8.09V35.7Z"/><path d="M55.56,43.21C55.56,41.77,57,41,58.44,41s2.89.73,2.89,2.17v3.56c0,1.45-1.45,2.19-2.89,2.19s-2.88-.74-2.88-2.19Zm.28,3.56c0,1.28,1.29,1.91,2.6,1.91s2.61-.63,2.61-1.91V43.21c0-1.34-1.32-1.91-2.62-1.91s-2.59.59-2.59,1.91Z"/><path d="M67.52,48.85v-7.7h2.73a2.3,2.3,0,0,1,2.38,2.33,2.26,2.26,0,0,1-2.37,2.3H67.79v3.07Zm2.73-3.34a2,2,0,0,0,2.1-2,2,2,0,0,0-2.1-2.07H67.79v4.11Z"/><path d="M78.7,44.87h4v.29h-4v3.42H83v.27H78.42v-7.7H83v.27H78.7Z"/><path d="M94,48.59V41.15h.27v7.7h-.47l-4.54-7.36v7.36h-.28v-7.7h.42Z"/><path d="M109.8,44.78c1.27.25,2.64.76,2.53,2.27-.08,1.24-1.33,1.91-2.6,1.91a3,3,0,0,1-2.55-1.24l.25-.11a2.82,2.82,0,0,0,2.32,1.08A2.08,2.08,0,0,0,112,47.05c.1-1.37-1.11-1.75-2.31-2s-2.55-.67-2.48-2.13c0-1.27,1.26-1.87,2.49-1.87a2.64,2.64,0,0,1,2.41,1.18l-.25.1a2.47,2.47,0,0,0-2.16-1c-1.09,0-2.14.46-2.22,1.61S108.55,44.53,109.8,44.78Z"/><path d="M118.07,43.21c0-1.44,1.43-2.17,2.87-2.17s2.89.73,2.89,2.17v3.56c0,1.45-1.44,2.19-2.89,2.19s-2.87-.74-2.87-2.19Zm.27,3.56c0,1.28,1.29,1.91,2.6,1.91s2.62-.63,2.62-1.91V43.21c0-1.34-1.33-1.91-2.63-1.91s-2.59.59-2.59,1.91Z"/><path d="M130.24,46.74c0,1.3,1.21,1.95,2.44,1.95s2.45-.65,2.45-1.95V41.15h.27v5.59c0,1.47-1.36,2.22-2.72,2.22S130,48.21,130,46.74V41.15h.27Z"/><path d="M146.33,48.85l-2.6-3.44H142v3.44h-.27v-7.7h2.74c1.34,0,2.37.52,2.41,2.08s-1,2.18-2.4,2.18H144l2.61,3.44Zm-1.88-3.68c1.41,0,2.13-.56,2.13-1.92s-.89-1.87-2.13-1.85H142v3.77Z"/><path d="M152.55,43.19c0-1.41,1.37-2.15,2.74-2.15a2.81,2.81,0,0,1,2.41,1.11l-.24.17a2.61,2.61,0,0,0-2.2-1c-1.2,0-2.44.63-2.44,1.89V46.8c0,1.26,1.24,1.88,2.44,1.88a2.63,2.63,0,0,0,2.2-1l.24.12A2.86,2.86,0,0,1,155.26,49c-1.35,0-2.71-.73-2.71-2.16Z"/><path d="M163.69,44.87h4v.29h-4v3.42H168v.27h-4.6v-7.7H168v.27h-4.33Z"/></g></g></svg>